<svg width="83" height="24" viewBox="0 0 83 24" fill="none" xmlns="http://www.w3.org/2000/svg">
<rect width="24" height="24" rx="4.54545" fill="#7B6CE7"/>
<path d="M15.0303 7.45459L18.0606 18.0606" stroke="white" stroke-width="1.51515" stroke-linecap="round" stroke-linejoin="round"/>
<path d="M12 7.45459V18.0606" stroke="white" stroke-width="1.51515" stroke-linecap="round" stroke-linejoin="round"/>
<path d="M8.96975 8.96973V18.0606" stroke="white" stroke-width="1.51515" stroke-linecap="round" stroke-linejoin="round"/>
<path d="M5.93945 5.93945V18.0607" stroke="white" stroke-width="1.51515" stroke-linecap="round" stroke-linejoin="round"/>
<path d="M37.1303 3.59896V5.21043H32.9804V7.76313H36.1606V9.34609H32.9804V13.553H30.9839V3.59896H37.1303Z" fill="#272727"/>
<path d="M37.8901 9.57426C37.8901 8.77565 38.0469 8.06736 38.3607 7.44939C38.6839 6.83142 39.1165 6.35606 39.6584 6.0233C40.2098 5.69055 40.823 5.52417 41.4981 5.52417C42.0875 5.52417 42.6009 5.64301 43.0382 5.8807C43.4851 6.11838 43.8416 6.41786 44.1078 6.77913V5.65252H46.1186V13.553H44.1078V12.3979C43.8511 12.7687 43.4946 13.0777 43.0382 13.3249C42.5914 13.5626 42.0733 13.6814 41.4838 13.6814C40.8183 13.6814 40.2098 13.5103 39.6584 13.168C39.1165 12.8257 38.6839 12.3456 38.3607 11.7277C38.0469 11.1002 37.8901 10.3824 37.8901 9.57426ZM44.1078 9.60278C44.1078 9.11791 44.0127 8.70435 43.8226 8.36209C43.6324 8.01032 43.3757 7.74412 43.0525 7.56348C42.7293 7.37333 42.3822 7.27826 42.0115 7.27826C41.6407 7.27826 41.2984 7.36858 40.9847 7.54922C40.6709 7.72986 40.4142 7.99606 40.2146 8.34783C40.0244 8.69009 39.9294 9.0989 39.9294 9.57426C39.9294 10.0496 40.0244 10.4679 40.2146 10.8292C40.4142 11.181 40.6709 11.4519 40.9847 11.6421C41.3079 11.8322 41.6502 11.9273 42.0115 11.9273C42.3822 11.9273 42.7293 11.837 43.0525 11.6563C43.3757 11.4662 43.6324 11.2 43.8226 10.8577C44.0127 10.506 44.1078 10.0877 44.1078 9.60278Z" fill="#272727"/>
<path d="M49.9224 6.80765C50.1791 6.42736 50.5309 6.11838 50.9778 5.8807C51.4341 5.64301 51.9522 5.52417 52.5322 5.52417C53.2072 5.52417 53.8157 5.69055 54.3576 6.0233C54.909 6.35606 55.3416 6.83142 55.6553 7.44939C55.9786 8.05785 56.1402 8.76615 56.1402 9.57426C56.1402 10.3824 55.9786 11.1002 55.6553 11.7277C55.3416 12.3456 54.909 12.8257 54.3576 13.168C53.8157 13.5103 53.2072 13.6814 52.5322 13.6814C51.9427 13.6814 51.4246 13.5673 50.9778 13.3391C50.5404 13.1014 50.1887 12.7972 49.9224 12.4264V13.553H47.9259V3H49.9224V6.80765ZM54.1009 9.57426C54.1009 9.0989 54.0011 8.69009 53.8014 8.34783C53.6113 7.99606 53.3546 7.72986 53.0313 7.54922C52.7176 7.36858 52.3753 7.27826 52.0045 7.27826C51.6433 7.27826 51.301 7.37333 50.9778 7.56348C50.664 7.74412 50.4073 8.01032 50.2077 8.36209C50.0175 8.71385 49.9224 9.12742 49.9224 9.60278C49.9224 10.0781 50.0175 10.4917 50.2077 10.8435C50.4073 11.1952 50.664 11.4662 50.9778 11.6563C51.301 11.837 51.6433 11.9273 52.0045 11.9273C52.3753 11.9273 52.7176 11.8322 53.0313 11.6421C53.3546 11.4519 53.6113 11.181 53.8014 10.8292C54.0011 10.4774 54.1009 10.0591 54.1009 9.57426Z" fill="#272727"/>
<path d="M64.9068 5.65252V13.553H62.8961V12.5548C62.6394 12.897 62.3018 13.168 61.8835 13.3677C61.4747 13.5578 61.0279 13.6529 60.543 13.6529C59.925 13.6529 59.3784 13.5245 58.903 13.2678C58.4276 13.0016 58.0521 12.6166 57.7764 12.1127C57.5102 11.5993 57.3771 10.9908 57.3771 10.2873V5.65252H59.3736V10.0021C59.3736 10.6296 59.5305 11.1144 59.8442 11.4567C60.158 11.7894 60.5858 11.9558 61.1277 11.9558C61.6791 11.9558 62.1117 11.7894 62.4254 11.4567C62.7392 11.1144 62.8961 10.6296 62.8961 10.0021V5.65252H64.9068Z" fill="#272727"/>
<path d="M68.7306 3V13.553H66.7341V3H68.7306Z" fill="#272727"/>
<path d="M72.5571 3V13.553H70.5606V3H72.5571Z" fill="#272727"/>
<path d="M73.8737 9.57426C73.8737 8.77565 74.0306 8.06736 74.3443 7.44939C74.6675 6.83142 75.1001 6.35606 75.642 6.0233C76.1935 5.69055 76.8067 5.52417 77.4817 5.52417C78.0711 5.52417 78.5845 5.64301 79.0219 5.8807C79.4687 6.11838 79.8252 6.41786 80.0914 6.77913V5.65252H82.1022V13.553H80.0914V12.3979C79.8347 12.7687 79.4782 13.0777 79.0219 13.3249C78.575 13.5626 78.0569 13.6814 77.4674 13.6814C76.8019 13.6814 76.1935 13.5103 75.642 13.168C75.1001 12.8257 74.6675 12.3456 74.3443 11.7277C74.0306 11.1002 73.8737 10.3824 73.8737 9.57426ZM80.0914 9.60278C80.0914 9.11791 79.9964 8.70435 79.8062 8.36209C79.6161 8.01032 79.3594 7.74412 79.0361 7.56348C78.7129 7.37333 78.3659 7.27826 77.9951 7.27826C77.6243 7.27826 77.282 7.36858 76.9683 7.54922C76.6546 7.72986 76.3979 7.99606 76.1982 8.34783C76.0081 8.69009 75.913 9.0989 75.913 9.57426C75.913 10.0496 76.0081 10.4679 76.1982 10.8292C76.3979 11.181 76.6546 11.4519 76.9683 11.6421C77.2915 11.8322 77.6338 11.9273 77.9951 11.9273C78.3659 11.9273 78.7129 11.837 79.0361 11.6563C79.3594 11.4662 79.6161 11.2 79.8062 10.8577C79.9964 10.506 80.0914 10.0877 80.0914 9.60278Z" fill="#272727"/>
<path d="M32.297 20.594C31.919 20.594 31.5742 20.5063 31.2625 20.3309C30.9508 20.1517 30.7033 19.9043 30.5202 19.5887C30.341 19.2692 30.2513 18.9107 30.2513 18.5133C30.2513 18.1158 30.341 17.7593 30.5202 17.4437C30.7033 17.1242 30.9508 16.8768 31.2625 16.7014C31.5742 16.5222 31.919 16.4326 32.297 16.4326C32.6788 16.4326 33.0256 16.5222 33.3373 16.7014C33.649 16.8768 33.8945 17.1222 34.0737 17.4379C34.253 17.7535 34.3426 18.1119 34.3426 18.5133C34.3426 18.9146 34.253 19.2731 34.0737 19.5887C33.8945 19.9043 33.649 20.1517 33.3373 20.3309C33.0256 20.5063 32.6788 20.594 32.297 20.594ZM32.297 20.1322C32.5814 20.1322 32.8366 20.066 33.0626 19.9335C33.2925 19.801 33.4717 19.6121 33.6003 19.3666C33.7328 19.1211 33.799 18.8367 33.799 18.5133C33.799 18.186 33.7328 17.9015 33.6003 17.66C33.4717 17.4145 33.2944 17.2255 33.0685 17.093C32.8425 16.9605 32.5853 16.8943 32.297 16.8943C32.0086 16.8943 31.7515 16.9605 31.5255 17.093C31.2995 17.2255 31.1202 17.4145 30.9878 17.66C30.8592 17.9015 30.7949 18.186 30.7949 18.5133C30.7949 18.8367 30.8592 19.1211 30.9878 19.3666C31.1202 19.6121 31.2995 19.801 31.5255 19.9335C31.7554 20.066 32.0125 20.1322 32.297 20.1322Z" fill="#949494"/>
<path d="M36.5468 17.2917C36.9364 17.2917 37.252 17.4106 37.4936 17.6483C37.7352 17.882 37.856 18.221 37.856 18.6652V20.553H37.33V18.7412C37.33 18.4217 37.2501 18.1782 37.0903 18.0106C36.9306 17.8392 36.7124 17.7535 36.4357 17.7535C36.1552 17.7535 35.9312 17.8411 35.7636 18.0165C35.6 18.1918 35.5181 18.447 35.5181 18.7821V20.553H34.9863V17.3502H35.5181V17.8061C35.6233 17.6424 35.7656 17.5158 35.9448 17.4262C36.1279 17.3365 36.3286 17.2917 36.5468 17.2917Z" fill="#949494"/>
<path d="M39.1982 16.228V20.553H38.6663V16.228H39.1982Z" fill="#949494"/>
<path d="M40.3209 16.83C40.2196 16.83 40.1339 16.7949 40.0638 16.7248C39.9936 16.6547 39.9585 16.569 39.9585 16.4676C39.9585 16.3663 39.9936 16.2806 40.0638 16.2105C40.1339 16.1403 40.2196 16.1053 40.3209 16.1053C40.4183 16.1053 40.5002 16.1403 40.5664 16.2105C40.6365 16.2806 40.6716 16.3663 40.6716 16.4676C40.6716 16.569 40.6365 16.6547 40.5664 16.7248C40.5002 16.7949 40.4183 16.83 40.3209 16.83ZM40.5781 17.3502V20.553H40.0462V17.3502H40.5781Z" fill="#949494"/>
<path d="M42.9866 17.2917C43.3763 17.2917 43.6919 17.4106 43.9334 17.6483C44.175 17.882 44.2958 18.221 44.2958 18.6652V20.553H43.7698V18.7412C43.7698 18.4217 43.6899 18.1782 43.5302 18.0106C43.3704 17.8392 43.1522 17.7535 42.8756 17.7535C42.595 17.7535 42.371 17.8411 42.2034 18.0165C42.0398 18.1918 41.958 18.447 41.958 18.7821V20.553H41.4261V17.3502H41.958V17.8061C42.0632 17.6424 42.2054 17.5158 42.3846 17.4262C42.5677 17.3365 42.7684 17.2917 42.9866 17.2917Z" fill="#949494"/>
<path d="M48.0285 18.8289C48.0285 18.9302 48.0226 19.0373 48.0109 19.1503H45.451C45.4705 19.4659 45.5776 19.7134 45.7725 19.8926C45.9712 20.0679 46.2108 20.1556 46.4913 20.1556C46.7212 20.1556 46.9122 20.103 47.0641 19.9978C47.22 19.8887 47.3291 19.7445 47.3914 19.5653H47.9642C47.8785 19.8731 47.707 20.1244 47.4499 20.3193C47.1927 20.5102 46.8732 20.6056 46.4913 20.6056C46.1874 20.6056 45.9147 20.5375 45.6731 20.4011C45.4354 20.2647 45.2484 20.0718 45.112 19.8225C44.9756 19.5692 44.9074 19.277 44.9074 18.9458C44.9074 18.6146 44.9737 18.3243 45.1062 18.0749C45.2386 17.8255 45.4237 17.6346 45.6614 17.5021C45.903 17.3658 46.1796 17.2976 46.4913 17.2976C46.7953 17.2976 47.0641 17.3638 47.2979 17.4963C47.5317 17.6288 47.7109 17.8119 47.8356 18.0457C47.9642 18.2756 48.0285 18.5366 48.0285 18.8289ZM47.4791 18.7178C47.4791 18.5152 47.4343 18.3418 47.3447 18.1977C47.255 18.0496 47.1323 17.9385 46.9764 17.8645C46.8245 17.7866 46.655 17.7476 46.468 17.7476C46.1991 17.7476 45.9692 17.8333 45.7783 18.0048C45.5913 18.1762 45.4841 18.4139 45.4568 18.7178H47.4791Z" fill="#949494"/>
<path d="M52.2116 18.4548C52.3597 18.4782 52.4941 18.5386 52.6149 18.636C52.7396 18.7334 52.837 18.8542 52.9071 18.9984C52.9811 19.1425 53.0182 19.2964 53.0182 19.4601C53.0182 19.6666 52.9656 19.8536 52.8603 20.0212C52.7551 20.1848 52.6012 20.3154 52.3986 20.4128C52.1999 20.5063 51.9642 20.553 51.6914 20.553H50.1718V16.4793H51.633C51.9096 16.4793 52.1454 16.5261 52.3402 16.6196C52.535 16.7092 52.6811 16.832 52.7785 16.9878C52.8759 17.1437 52.9246 17.319 52.9246 17.5138C52.9246 17.7554 52.8584 17.9561 52.7259 18.1158C52.5973 18.2717 52.4259 18.3847 52.2116 18.4548ZM50.7037 18.2386H51.5979C51.8473 18.2386 52.0401 18.1801 52.1765 18.0632C52.3129 17.9463 52.3811 17.7846 52.3811 17.5781C52.3811 17.3716 52.3129 17.2099 52.1765 17.093C52.0401 16.9761 51.8434 16.9177 51.5862 16.9177H50.7037V18.2386ZM51.6447 20.1147C51.9096 20.1147 52.1161 20.0524 52.2642 19.9277C52.4123 19.803 52.4863 19.6296 52.4863 19.4075C52.4863 19.1815 52.4084 19.0042 52.2525 18.8756C52.0966 18.7432 51.8882 18.6769 51.6271 18.6769H50.7037V20.1147H51.6447Z" fill="#949494"/>
<path d="M55.0946 20.6056C54.7946 20.6056 54.5219 20.5375 54.2764 20.4011C54.0348 20.2647 53.8439 20.0718 53.7036 19.8225C53.5672 19.5692 53.4991 19.277 53.4991 18.9458C53.4991 18.6185 53.5692 18.3301 53.7095 18.0808C53.8536 17.8275 54.0485 17.6346 54.2939 17.5021C54.5394 17.3658 54.8141 17.2976 55.118 17.2976C55.4219 17.2976 55.6966 17.3658 55.9421 17.5021C56.1876 17.6346 56.3805 17.8255 56.5207 18.0749C56.6649 18.3243 56.737 18.6146 56.737 18.9458C56.737 19.277 56.663 19.5692 56.5149 19.8225C56.3707 20.0718 56.174 20.2647 55.9246 20.4011C55.6752 20.5375 55.3986 20.6056 55.0946 20.6056ZM55.0946 20.1381C55.2856 20.1381 55.4648 20.0933 55.6323 20.0036C55.7999 19.914 55.9343 19.7796 56.0356 19.6004C56.1408 19.4211 56.1934 19.2029 56.1934 18.9458C56.1934 18.6886 56.1428 18.4704 56.0415 18.2912C55.9402 18.1119 55.8077 17.9795 55.644 17.8937C55.4804 17.8041 55.3031 17.7593 55.1122 17.7593C54.9174 17.7593 54.7381 17.8041 54.5745 17.8937C54.4147 17.9795 54.2861 18.1119 54.1887 18.2912C54.0913 18.4704 54.0426 18.6886 54.0426 18.9458C54.0426 19.2068 54.0894 19.427 54.1829 19.6062C54.2803 19.7854 54.4089 19.9199 54.5686 20.0095C54.7284 20.0952 54.9037 20.1381 55.0946 20.1381Z" fill="#949494"/>
<path d="M58.7747 20.6056C58.4747 20.6056 58.2019 20.5375 57.9565 20.4011C57.7149 20.2647 57.524 20.0718 57.3837 19.8225C57.2473 19.5692 57.1791 19.277 57.1791 18.9458C57.1791 18.6185 57.2493 18.3301 57.3895 18.0808C57.5337 17.8275 57.7285 17.6346 57.974 17.5021C58.2195 17.3658 58.4942 17.2976 58.7981 17.2976C59.102 17.2976 59.3767 17.3658 59.6222 17.5021C59.8676 17.6346 60.0605 17.8255 60.2008 18.0749C60.345 18.3243 60.417 18.6146 60.417 18.9458C60.417 19.277 60.343 19.5692 60.195 19.8225C60.0508 20.0718 59.854 20.2647 59.6046 20.4011C59.3553 20.5375 59.0786 20.6056 58.7747 20.6056ZM58.7747 20.1381C58.9656 20.1381 59.1449 20.0933 59.3124 20.0036C59.48 19.914 59.6144 19.7796 59.7157 19.6004C59.8209 19.4211 59.8735 19.2029 59.8735 18.9458C59.8735 18.6886 59.8228 18.4704 59.7215 18.2912C59.6202 18.1119 59.4878 17.9795 59.3241 17.8937C59.1604 17.8041 58.9832 17.7593 58.7922 17.7593C58.5974 17.7593 58.4182 17.8041 58.2545 17.8937C58.0948 17.9795 57.9662 18.1119 57.8688 18.2912C57.7714 18.4704 57.7227 18.6886 57.7227 18.9458C57.7227 19.2068 57.7694 19.427 57.8629 19.6062C57.9604 19.7854 58.0889 19.9199 58.2487 20.0095C58.4084 20.0952 58.5838 20.1381 58.7747 20.1381Z" fill="#949494"/>
<path d="M62.8464 20.553L61.5898 19.1386V20.553H61.0579V16.228H61.5898V18.7704L62.823 17.3502H63.5653L62.0573 18.9458L63.5711 20.553H62.8464Z" fill="#949494"/>
<path d="M66.7988 20.594C66.5299 20.594 66.2884 20.5472 66.0741 20.4537C65.8637 20.3563 65.6981 20.2238 65.5773 20.0562C65.4565 19.8848 65.3941 19.688 65.3902 19.4659H65.9572C65.9766 19.6569 66.0546 19.8186 66.1909 19.951C66.3312 20.0796 66.5338 20.1439 66.7988 20.1439C67.0521 20.1439 67.2508 20.0816 67.3949 19.9569C67.543 19.8283 67.617 19.6647 67.617 19.4659C67.617 19.3101 67.5742 19.1835 67.4885 19.086C67.4027 18.9886 67.2956 18.9146 67.167 18.8639C67.0384 18.8133 66.865 18.7587 66.6468 18.7003C66.378 18.6302 66.1617 18.56 65.9981 18.4899C65.8383 18.4198 65.7 18.3107 65.5831 18.1626C65.4701 18.0106 65.4136 17.808 65.4136 17.5547C65.4136 17.3327 65.4701 17.1359 65.5831 16.9644C65.6961 16.793 65.8539 16.6605 66.0565 16.567C66.263 16.4735 66.4988 16.4267 66.7637 16.4267C67.1456 16.4267 67.4573 16.5222 67.6989 16.7131C67.9443 16.904 68.0827 17.1573 68.1138 17.4729H67.5294C67.5099 17.3171 67.4281 17.1807 67.2839 17.0638C67.1397 16.943 66.9488 16.8826 66.7111 16.8826C66.489 16.8826 66.3078 16.9411 66.1676 17.058C66.0273 17.1709 65.9572 17.3307 65.9572 17.5372C65.9572 17.6853 65.9981 17.8061 66.0799 17.8996C66.1656 17.9931 66.2689 18.0652 66.3897 18.1158C66.5144 18.1626 66.6877 18.2171 66.9098 18.2795C67.1787 18.3535 67.3949 18.4275 67.5586 18.5016C67.7222 18.5717 67.8625 18.6828 67.9794 18.8347C68.0963 18.9828 68.1547 19.1854 68.1547 19.4426C68.1547 19.6413 68.1021 19.8283 67.9969 20.0036C67.8917 20.179 67.7359 20.3212 67.5294 20.4303C67.3229 20.5394 67.0793 20.594 66.7988 20.594Z" fill="#949494"/>
<path d="M69.5277 17.7885V19.6763C69.5277 19.8322 69.5609 19.9433 69.6271 20.0095C69.6933 20.0718 69.8083 20.103 69.9719 20.103H70.3635V20.553H69.8843C69.5881 20.553 69.366 20.4849 69.218 20.3485C69.0699 20.2121 68.9959 19.9881 68.9959 19.6763V17.7885H68.5809V17.3502H68.9959V16.5436H69.5277V17.3502H70.3635V17.7885H69.5277Z" fill="#949494"/>
<path d="M72.3464 20.6056C72.0463 20.6056 71.7736 20.5375 71.5281 20.4011C71.2865 20.2647 71.0956 20.0718 70.9553 19.8225C70.819 19.5692 70.7508 19.277 70.7508 18.9458C70.7508 18.6185 70.8209 18.3301 70.9612 18.0808C71.1053 17.8275 71.3002 17.6346 71.5456 17.5021C71.7911 17.3658 72.0658 17.2976 72.3697 17.2976C72.6737 17.2976 72.9484 17.3658 73.1938 17.5021C73.4393 17.6346 73.6322 17.8255 73.7724 18.0749C73.9166 18.3243 73.9887 18.6146 73.9887 18.9458C73.9887 19.277 73.9147 19.5692 73.7666 19.8225C73.6224 20.0718 73.4257 20.2647 73.1763 20.4011C72.9269 20.5375 72.6503 20.6056 72.3464 20.6056ZM72.3464 20.1381C72.5373 20.1381 72.7165 20.0933 72.8841 20.0036C73.0516 19.914 73.186 19.7796 73.2873 19.6004C73.3925 19.4211 73.4451 19.2029 73.4451 18.9458C73.4451 18.6886 73.3945 18.4704 73.2932 18.2912C73.1919 18.1119 73.0594 17.9795 72.8958 17.8937C72.7321 17.8041 72.5548 17.7593 72.3639 17.7593C72.1691 17.7593 71.9898 17.8041 71.8262 17.8937C71.6664 17.9795 71.5378 18.1119 71.4404 18.2912C71.343 18.4704 71.2943 18.6886 71.2943 18.9458C71.2943 19.2068 71.3411 19.427 71.4346 19.6062C71.532 19.7854 71.6606 19.9199 71.8203 20.0095C71.9801 20.0952 72.1554 20.1381 72.3464 20.1381Z" fill="#949494"/>
<path d="M75.1614 17.8704C75.2549 17.6872 75.3874 17.545 75.5588 17.4437C75.7342 17.3424 75.9465 17.2917 76.1959 17.2917V17.8411H76.0556C75.4595 17.8411 75.1614 18.1645 75.1614 18.8113V20.553H74.6296V17.3502H75.1614V17.8704Z" fill="#949494"/>
<path d="M79.6737 18.8289C79.6737 18.9302 79.6679 19.0373 79.6562 19.1503H77.0963C77.1157 19.4659 77.2229 19.7134 77.4177 19.8926C77.6164 20.0679 77.8561 20.1556 78.1366 20.1556C78.3665 20.1556 78.5574 20.103 78.7094 19.9978C78.8652 19.8887 78.9743 19.7445 79.0367 19.5653H79.6095C79.5237 19.8731 79.3523 20.1244 79.0951 20.3193C78.838 20.5102 78.5185 20.6056 78.1366 20.6056C77.8327 20.6056 77.5599 20.5375 77.3184 20.4011C77.0807 20.2647 76.8936 20.0718 76.7573 19.8225C76.6209 19.5692 76.5527 19.277 76.5527 18.9458C76.5527 18.6146 76.6189 18.3243 76.7514 18.0749C76.8839 17.8255 77.069 17.6346 77.3067 17.5021C77.5482 17.3658 77.8249 17.2976 78.1366 17.2976C78.4405 17.2976 78.7094 17.3638 78.9432 17.4963C79.1769 17.6288 79.3562 17.8119 79.4809 18.0457C79.6095 18.2756 79.6737 18.5366 79.6737 18.8289ZM79.1243 18.7178C79.1243 18.5152 79.0795 18.3418 78.9899 18.1977C78.9003 18.0496 78.7776 17.9385 78.6217 17.8645C78.4697 17.7866 78.3003 17.7476 78.1132 17.7476C77.8444 17.7476 77.6145 17.8333 77.4236 18.0048C77.2365 18.1762 77.1294 18.4139 77.1021 18.7178H79.1243Z" fill="#949494"/>
</svg>
