<svg width="1621" height="370" viewBox="0 0 1621 370" fill="none" xmlns="http://www.w3.org/2000/svg">
<rect width="1621" height="370" fill="#6C5DD3"/>
<mask id="mask0_978_40" style="mask-type:alpha" maskUnits="userSpaceOnUse" x="0" y="0" width="1621" height="370">
<rect width="1621" height="370" fill="#6C5DD3"/>
</mask>
<g mask="url(#mask0_978_40)">
<path d="M338.641 310C323.245 336.667 284.755 336.667 269.359 310L192.283 176.5C176.887 149.833 196.132 116.5 226.924 116.5L381.076 116.5C411.868 116.5 431.113 149.833 415.717 176.5L338.641 310Z" fill="white" fill-opacity="0.05"/>
<path d="M1512.07 342.969C1506.71 339.872 1506.71 332.128 1512.07 329.031L1538.93 313.524C1544.29 310.427 1551 314.299 1551 320.494L1551 351.506C1551 357.701 1544.29 361.573 1538.93 358.476L1512.07 342.969Z" fill="black" fill-opacity="0.1"/>
<path d="M1565.07 296.969C1559.71 293.872 1559.71 286.128 1565.07 283.031L1591.93 267.524C1597.29 264.427 1604 268.299 1604 274.494L1604 305.506C1604 311.701 1597.29 315.573 1591.93 312.476L1565.07 296.969Z" fill="black" fill-opacity="0.1"/>
<path d="M1597.93 342.969C1603.29 339.872 1603.29 332.128 1597.93 329.031L1571.07 313.524C1565.71 310.427 1559 314.299 1559 320.494L1559 351.506C1559 357.701 1565.71 361.573 1571.07 358.476L1597.93 342.969Z" fill="black" fill-opacity="0.1"/>
<path d="M1648.93 297.969C1654.29 294.872 1654.29 287.128 1648.93 284.031L1622.07 268.524C1616.71 265.427 1610 269.299 1610 275.494L1610 306.506C1610 312.701 1616.71 316.573 1622.07 313.476L1648.93 297.969Z" fill="black" fill-opacity="0.1"/>
<path d="M1613.07 342.969C1607.71 339.872 1607.71 332.128 1613.07 329.031L1639.93 313.524C1645.29 310.427 1652 314.299 1652 320.494L1652 351.506C1652 357.701 1645.29 361.573 1639.93 358.476L1613.07 342.969Z" fill="black" fill-opacity="0.1"/>
<path d="M1568.07 389.969C1562.71 386.872 1562.71 379.128 1568.07 376.031L1594.93 360.524C1600.29 357.427 1607 361.299 1607 367.494L1607 398.506C1607 404.701 1600.29 408.573 1594.93 405.476L1568.07 389.969Z" fill="black" fill-opacity="0.1"/>
<path d="M7.35902 233C22.755 206.333 61.245 206.333 76.641 233L153.717 366.5C169.113 393.167 149.868 426.5 119.076 426.5H-35.0763C-65.8683 426.5 -85.1133 393.167 -69.7173 366.5L7.35902 233Z" fill="black" fill-opacity="0.1"/>
<path d="M-21.641 233C-6.24497 206.333 32.245 206.333 47.641 233L124.717 366.5C140.113 393.167 120.868 426.5 90.0763 426.5H-64.0763C-94.8683 426.5 -114.113 393.167 -98.7173 366.5L-21.641 233Z" fill="#FFAB7C"/>
<path d="M1616.22 -97.2366C1634.12 -128.243 1678.88 -128.243 1696.78 -97.2367L1786.4 57.9866C1804.3 88.9925 1781.92 127.75 1746.12 127.75L1566.88 127.75C1531.08 127.75 1508.7 88.9926 1526.6 57.9867L1616.22 -97.2366Z" fill="black" fill-opacity="0.1"/>
<path d="M1644.15 -135.778C1661.95 -174.985 1715.51 -180.225 1740.57 -145.209L1866.01 30.0872C1891.06 65.1027 1868.82 114.112 1825.97 118.303L1611.44 139.288C1568.58 143.479 1537.26 99.71 1555.06 60.5028L1644.15 -135.778Z" fill="#FFAB7C"/>
<path d="M269.359 -126C284.755 -152.667 323.245 -152.667 338.641 -126L415.717 7.50002C431.113 34.1667 411.868 67.5 381.076 67.5L226.924 67.5C196.132 67.5 176.887 34.1666 192.283 7.49996L269.359 -126Z" fill="white" fill-opacity="0.05"/>
<path d="M130.641 47.0001C115.245 73.6667 76.755 73.6667 61.359 47L-15.7174 -86.5C-31.1134 -113.167 -11.8683 -146.5 18.9237 -146.5L173.076 -146.5C203.868 -146.5 223.113 -113.167 207.717 -86.5L130.641 47.0001Z" fill="white" fill-opacity="0.05"/>
<path d="M549.641 47.0001C534.245 73.6667 495.755 73.6667 480.359 47L403.283 -86.5C387.887 -113.167 407.132 -146.5 437.924 -146.5L592.076 -146.5C622.868 -146.5 642.113 -113.167 626.717 -86.5L549.641 47.0001Z" fill="white" fill-opacity="0.05"/>
</g>
</svg>
