<svg width="795" height="443" viewBox="0 0 795 443" fill="none" xmlns="http://www.w3.org/2000/svg">
<rect width="795" height="443" transform="matrix(1 0 0 -1 0 443)" fill="#E7F1FB"/>
<mask id="mask0_706_53" style="mask-type:alpha" maskUnits="userSpaceOnUse" x="0" y="0" width="795" height="443">
<rect width="795" height="443" transform="matrix(1 0 0 -1 0 443)" fill="#E7F1FB"/>
</mask>
<g mask="url(#mask0_706_53)">
<circle cx="79.5" cy="426.5" r="211.5" fill="#C7E4FF"/>
<circle cx="579" r="151" fill="#C7E4FF"/>
<circle cx="754.546" cy="134.318" r="3.31818" transform="rotate(90 754.546 134.318)" fill="#A4D3FE"/>
<circle cx="754.546" cy="147.591" r="3.31818" transform="rotate(90 754.546 147.591)" fill="#A4D3FE"/>
<circle cx="754.546" cy="160.864" r="3.31818" transform="rotate(90 754.546 160.864)" fill="#A4D3FE"/>
<circle cx="754.546" cy="174.137" r="3.31818" transform="rotate(90 754.546 174.137)" fill="#A4D3FE"/>
<circle cx="754.546" cy="187.409" r="3.31818" transform="rotate(90 754.546 187.409)" fill="#A4D3FE"/>
<circle cx="754.546" cy="200.682" r="3.31818" transform="rotate(90 754.546 200.682)" fill="#A4D3FE"/>
<circle cx="742.932" cy="134.318" r="3.31818" transform="rotate(90 742.932 134.318)" fill="#A4D3FE"/>
<circle cx="742.932" cy="147.591" r="3.31818" transform="rotate(90 742.932 147.591)" fill="#A4D3FE"/>
<circle cx="742.932" cy="160.864" r="3.31818" transform="rotate(90 742.932 160.864)" fill="#A4D3FE"/>
<circle cx="742.932" cy="174.137" r="3.31818" transform="rotate(90 742.932 174.137)" fill="#A4D3FE"/>
<circle cx="742.932" cy="187.409" r="3.31818" transform="rotate(90 742.932 187.409)" fill="#A4D3FE"/>
<circle cx="742.932" cy="200.682" r="3.31818" transform="rotate(90 742.932 200.682)" fill="#A4D3FE"/>
<circle cx="731.319" cy="134.318" r="3.31818" transform="rotate(90 731.319 134.318)" fill="#A4D3FE"/>
<circle cx="731.319" cy="147.591" r="3.31818" transform="rotate(90 731.319 147.591)" fill="#A4D3FE"/>
<circle cx="731.319" cy="160.864" r="3.31818" transform="rotate(90 731.319 160.864)" fill="#A4D3FE"/>
<circle cx="731.319" cy="174.137" r="3.31818" transform="rotate(90 731.319 174.137)" fill="#A4D3FE"/>
<circle cx="731.319" cy="187.409" r="3.31818" transform="rotate(90 731.319 187.409)" fill="#A4D3FE"/>
<circle cx="731.319" cy="200.682" r="3.31818" transform="rotate(90 731.319 200.682)" fill="#A4D3FE"/>
</g>
</svg>
