<svg width="32" height="32" viewBox="0 0 32 32" fill="none" xmlns="http://www.w3.org/2000/svg">
<g clip-path="url(#clip0_678_12)">
<path d="M11.0401 0.718C11.101 0.510657 11.2275 0.328637 11.4006 0.1992C11.5736 0.0697624 11.784 -0.000126373 12.0001 1.71543e-07H20.0001C20.1585 0.000120387 20.3145 0.037852 20.4555 0.110089C20.5964 0.182326 20.7182 0.287002 20.8107 0.4155C20.9033 0.543999 20.964 0.692645 20.9879 0.849201C21.0118 1.00576 20.9981 1.16575 20.9481 1.316L17.3881 12H25.0001C25.1874 11.9999 25.3709 12.0523 25.5298 12.1514C25.6887 12.2505 25.8166 12.3922 25.899 12.5604C25.9813 12.7286 26.0147 12.9165 25.9955 13.1028C25.9762 13.2891 25.9051 13.4662 25.7901 13.614L11.7901 31.614C11.6467 31.7993 11.4427 31.9283 11.2139 31.9786C10.985 32.0289 10.7458 31.9972 10.5379 31.8891C10.3301 31.781 10.1667 31.6033 10.0765 31.3871C9.98623 31.1709 9.97476 30.9298 10.0441 30.706L13.6461 19H7.0001C6.84463 19.0001 6.69128 18.9639 6.55222 18.8944C6.41317 18.8249 6.29225 18.7238 6.19906 18.5994C6.10587 18.475 6.04298 18.3305 6.01539 18.1775C5.98779 18.0245 5.99625 17.8672 6.0401 17.718L11.0401 0.718Z" fill="#6C5DD4"/>
</g>
<defs>
<clipPath id="clip0_678_12">
<rect width="32" height="32" fill="white"/>
</clipPath>
</defs>
</svg>
