<svg width="32" height="32" viewBox="0 0 32 32" fill="none" xmlns="http://www.w3.org/2000/svg">
<path d="M16.6332 0.11647C16.2256 -0.0388235 15.7751 -0.0388235 15.3674 0.11647L2.92289 4.85607C2.58232 4.98577 2.28984 5.21701 2.08506 5.51846C1.88028 5.81991 1.77308 6.17702 1.77799 6.54142C1.84459 11.4871 3.07613 16.3475 5.37269 20.7282C7.65756 25.0899 10.9506 28.8431 14.9781 31.6759C15.2775 31.8863 15.6344 31.9991 16.0003 31.9991C16.3662 31.9991 16.7232 31.8863 17.0226 31.6759C21.0492 28.8434 24.3416 25.0908 26.6262 20.73C28.9237 16.3489 30.1558 11.4879 30.2227 6.54142C30.228 6.17672 30.1209 5.81922 29.9161 5.51741C29.7113 5.21561 29.4186 4.9841 29.0778 4.85429L16.6332 0.11647Z" fill="#6C5DD4"/>
<path fill-rule="evenodd" clip-rule="evenodd" d="M21.0205 10.9795C21.2208 11.18 21.3333 11.4518 21.3333 11.7352C21.3333 12.0186 21.2208 12.2905 21.0205 12.491L14.6039 18.9076C14.4034 19.1079 14.1315 19.2204 13.8481 19.2204C13.5647 19.2204 13.2929 19.1079 13.0924 18.9076L10.9535 16.7687C10.7646 16.566 10.6618 16.2979 10.6667 16.0208C10.6716 15.7437 10.7838 15.4794 10.9797 15.2835C11.1757 15.0875 11.44 14.9753 11.7171 14.9704C11.9941 14.9655 12.2623 15.0684 12.465 15.2573L13.8481 16.6404L19.509 10.9795C19.7096 10.7792 19.9814 10.6667 20.2648 10.6667C20.5482 10.6667 20.82 10.7792 21.0205 10.9795Z" fill="white"/>
</svg>
