<svg width="32" height="32" viewBox="0 0 32 32" fill="none" xmlns="http://www.w3.org/2000/svg">
<path d="M11.4449 5.45267C13.4721 1.81756 14.4848 0 16 0C17.5152 0 18.5279 1.81756 20.5551 5.45267L21.0799 6.39345C21.6559 7.42702 21.9439 7.94381 22.3918 8.28461C22.8398 8.6254 23.3998 8.75179 24.5198 9.00459L25.5374 9.23498C29.4733 10.1262 31.4396 10.571 31.9084 12.0765C32.3756 13.5805 31.0348 15.15 28.3517 18.2876L27.6573 19.0988C26.8957 19.9899 26.5134 20.4363 26.3422 20.9867C26.171 21.5387 26.2286 22.1339 26.3438 23.3227L26.4494 24.4058C26.8541 28.5929 27.0573 30.6857 25.8318 31.6153C24.6062 32.5464 22.763 31.6969 19.0799 30.0009L18.1247 29.5625C17.0784 29.0793 16.5552 28.8393 16 28.8393C15.4448 28.8393 14.9216 29.0793 13.8752 29.5625L12.9217 30.0009C9.23696 31.6969 7.3938 32.5448 6.16983 31.6169C4.94266 30.6857 5.14585 28.5929 5.55065 24.4058L5.65624 23.3242C5.77144 22.1339 5.82904 21.5387 5.65624 20.9883C5.48665 20.4363 5.10426 19.9899 4.34267 19.1004L3.64829 18.2876C0.965154 15.1516 -0.375615 13.5821 0.0915738 12.0765C0.560363 10.571 2.52832 10.1246 6.46422 9.23498L7.4818 9.00459C8.60017 8.75179 9.15856 8.6254 9.60815 8.28461C10.0561 7.94381 10.3441 7.42702 10.9201 6.39345L11.4449 5.45267Z" fill="#6C5DD4"/>
</svg>
